<?xml version="1.0" encoding="UTF-8"?>
<svg width="489px" height="447px" viewBox="0 0 489 447" version="1.1" xmlns="http://www.w3.org/2000/svg" xmlns:xlink="http://www.w3.org/1999/xlink">
    <!-- Generator: Sketch 51.2 (57519) - http://www.bohemiancoding.com/sketch -->
    <title>Group</title>
    <desc>Created with Sketch.</desc>
    <defs></defs>
    <g id="Page-1" stroke="none" stroke-width="1" fill="none" fill-rule="evenodd">
        <g id="Group" fill="#000000" fill-rule="nonzero">
            <path d="M244.5,0.2 C252.8,35.7 288.5,179.1 299.3,220.1 C306.4,247.2 297.6,274.5 277.2,288.6 C256.4,302.9 232,302.7 211.2,288 C191.2,273.9 182.7,247.1 189.7,220.3 C199.2,184.4 234.9,41 244.5,0.2 Z M226.8,193.9 C226.8,223.2 226.8,252.4 226.8,281.7 C226.8,287 226.8,293.2 234.3,293.2 C241.8,293.3 241.9,287.6 241.9,282.1 C241.9,268.1 241.6,254.3 241.7,240.3 C241.7,237.5 241.1,233 244.1,232.5 C246,232.2 249,235.3 251,237.4 C258.8,245.5 266.4,253.9 274.1,262.1 C278.1,266.4 283.3,271.7 288.8,266.4 C294.4,261 288.5,255.9 284.8,251.8 C271.9,237.5 258.9,223.3 245.7,209.3 C241.5,204.8 238.4,200.1 242.1,196.6 C245.5,193.3 250,198.4 252.9,200.9 C260.2,207.2 266.9,214.2 274,220.6 C277.9,224.1 281.9,231 287.8,224.2 C293.2,218 288,213.3 283.6,209.1 C270.9,196.9 258.2,184.7 245.5,172.6 C241.3,168.6 238.3,164.5 241.7,161 C244.8,157.7 249.5,162.3 252.1,164.6 C257.8,169.7 262.9,175.4 268.5,180.6 C272.1,184 276.4,188.1 281.2,182.8 C285.8,177.8 283.4,173.7 278.7,169.4 C267.2,158.8 256.4,147.6 245.2,136.6 C241.7,133.2 239.7,128.7 243,125.2 C246.2,121.8 248.4,127.1 250.8,128.7 C255.2,131.6 260.1,134.3 264.2,129.5 C268.3,124.7 264.9,120.3 260.9,116.7 C254.7,111.1 248.6,105.5 242.5,99.9 C239.3,97 236.4,93.2 231.4,95.3 C226,97.6 226.5,102.6 226.5,107.3 C226.8,136 226.8,165 226.8,193.9 Z" id="Shape"></path>
            <g transform="translate(0.000000, 328.000000)" id="Shape">
                <path d="M32.8,20 C33,20 33.4,20 34.1,20.1 L34.1,35.3 C33.2,35.2 32.3,35.1 31.6,35.1 C30.9,35.1 30.3,35 29.8,35 C23.8,35 19.7,36.9 17.6,40.8 C16.4,43 15.9,46.3 15.9,50.9 L15.9,78 L0.8,78 L0.8,21.4 L15.1,21.4 L15.1,31.3 C17.4,27.5 19.4,24.9 21.2,23.6 C24,21.3 27.7,20.1 32.1,20.1 C32.3,19.9 32.6,20 32.8,20 Z"></path>
                <path d="M65.6,43.5 C68.4,43.2 70.4,42.7 71.6,42.2 C73.8,41.3 74.8,39.9 74.8,38 C74.8,35.7 74,34.1 72.3,33.2 C70.6,32.3 68.2,31.9 65,31.9 C61.4,31.9 58.9,32.8 57.4,34.5 C56.3,35.8 55.6,37.5 55.3,39.7 L40.8,39.7 C41.1,34.7 42.5,30.7 45,27.5 C49,22.5 55.8,20 65.5,20 C71.8,20 77.4,21.2 82.3,23.7 C87.2,26.2 89.6,30.8 89.6,37.6 L89.6,63.6 C89.6,65.4 89.6,67.6 89.7,70.1 C89.8,72 90.1,73.4 90.6,74 C91.1,74.7 91.8,75.3 92.8,75.7 L92.8,77.9 L76.5,77.9 C76,76.8 75.7,75.7 75.6,74.7 C75.4,73.7 75.3,72.6 75.2,71.3 C73.1,73.5 70.7,75.4 68,77 C64.8,78.8 61.1,79.8 57,79.8 C51.8,79.8 47.5,78.3 44.1,75.4 C40.7,72.5 39,68.3 39,63 C39,56 41.7,51 47.2,47.9 C50.2,46.2 54.6,45 60.5,44.3 L65.6,43.5 Z M74.7,50.4 C73.7,51 72.8,51.5 71.8,51.8 C70.8,52.2 69.5,52.5 67.8,52.8 L64.4,53.4 C61.2,54 58.9,54.6 57.5,55.4 C55.1,56.8 54,58.8 54,61.7 C54,64.2 54.7,66.1 56.2,67.2 C57.6,68.3 59.4,68.9 61.5,68.9 C64.8,68.9 67.8,68 70.6,66.1 C73.4,64.2 74.8,60.8 74.9,55.9 L74.9,50.4 L74.7,50.4 Z"></path>
                <path d="M118.2,14.5 L103,14.5 L103,0.8 L118.2,0.8 L118.2,14.5 Z M103,21.3 L118.2,21.3 L118.2,77.9 L103,77.9 L103,21.3 Z"></path>
                <path d="M179,24.5 C182.8,27.6 184.6,32.7 184.6,39.8 L184.6,77.9 L169.2,77.9 L169.2,43.4 C169.2,40.4 168.8,38.1 168,36.5 C166.5,33.6 163.8,32.1 159.6,32.1 C154.6,32.1 151.1,34.2 149.2,38.5 C148.2,40.8 147.7,43.6 147.7,47.1 L147.7,77.8 L132.7,77.8 L132.7,21.3 L147.2,21.3 L147.2,29.6 C149.1,26.7 150.9,24.6 152.6,23.3 C155.7,21 159.6,19.9 164.3,19.9 C170.4,19.9 175.2,21.5 179,24.5 Z"></path>
                <path d="M222.3,0.6 C223.1,0.7 224.1,0.7 225.5,0.8 L225.5,12.9 C224.7,12.8 223.2,12.7 221.3,12.7 C219.3,12.6 218,13.1 217.2,14 C216.4,14.9 216.1,15.9 216.1,17 C216.1,18.1 216.1,19.7 216.1,21.8 L225.9,21.8 L225.9,32.2 L216,32.2 L216,77.9 L201.1,77.9 L201.1,32.2 L192.7,32.2 L192.7,21.8 L200.9,21.8 L200.9,18.2 C200.9,12.1 201.9,8 204,5.7 C206.2,2.3 211.4,0.6 219.7,0.6 C220.6,0.6 221.5,0.6 222.3,0.6 Z"></path>
                <path d="M282.3,71 C277.5,76.9 270.1,79.9 260.3,79.9 C250.4,79.9 243.1,76.9 238.3,71 C233.5,65.1 231,58 231,49.7 C231,41.5 233.4,34.5 238.3,28.5 C243.1,22.5 250.5,19.5 260.3,19.5 C270.2,19.5 277.5,22.5 282.3,28.5 C287.1,34.5 289.6,41.6 289.6,49.7 C289.5,58 287.1,65.1 282.3,71 Z M270.3,62.8 C272.7,59.7 273.8,55.3 273.8,49.7 C273.8,44 272.6,39.7 270.3,36.6 C267.9,33.5 264.6,32 260.2,32 C255.8,32 252.4,33.5 250.1,36.6 C247.7,39.7 246.5,44 246.5,49.7 C246.5,55.4 247.7,59.7 250.1,62.8 C252.5,65.9 255.8,67.4 260.2,67.4 C264.5,67.4 267.9,65.9 270.3,62.8 Z"></path>
                <path d="M332.1,20 C332.3,20 332.7,20 333.4,20.1 L333.4,35.3 C332.5,35.2 331.6,35.1 330.9,35.1 C330.2,35.1 329.6,35 329.1,35 C323.1,35 319,36.9 316.9,40.8 C315.7,43 315.2,46.3 315.2,50.9 L315.2,78 L300.1,78 L300.1,21.4 L314.4,21.4 L314.4,31.3 C316.7,27.5 318.7,24.9 320.5,23.6 C323.3,21.3 327,20.1 331.4,20.1 C331.7,19.9 331.9,20 332.1,20 Z"></path>
                <path d="M379.6,22.4 C383.6,24.2 386.9,27 389.5,30.8 C391.8,34.2 393.4,38.1 394.1,42.5 C394.5,45.1 394.7,48.8 394.6,53.7 L352.8,53.7 C353,59.4 355,63.4 358.8,65.7 C361.1,67.1 363.8,67.8 367.1,67.8 C370.5,67.8 373.3,66.9 375.4,65.2 C376.6,64.3 377.6,63 378.5,61.3 L393.8,61.3 C393.4,64.7 391.5,68.1 388.2,71.5 C383.1,77 375.9,79.8 366.6,79.8 C359,79.8 352.2,77.5 346.4,72.8 C340.6,68.1 337.6,60.6 337.6,50.1 C337.6,40.3 340.2,32.8 345.5,27.5 C350.8,22.3 357.6,19.6 366,19.6 C371.1,19.8 375.6,20.7 379.6,22.4 Z M357.1,35.2 C355,37.4 353.6,40.3 353.1,44 L379,44 C378.7,40.1 377.4,37.1 375,35 C372.6,33 369.6,31.9 366.1,31.9 C362.2,32 359.3,33.1 357.1,35.2 Z"></path>
                <path d="M413.8,59.9 C414.1,62.5 414.8,64.4 415.9,65.5 C417.8,67.5 421.2,68.5 426.3,68.5 C429.3,68.5 431.6,68.1 433.4,67.2 C435.1,66.3 436,65 436,63.3 C436,61.6 435.3,60.4 433.9,59.5 C432.5,58.6 427.3,57.1 418.2,55 C411.7,53.4 407.1,51.4 404.4,49 C401.7,46.6 400.4,43.3 400.4,38.8 C400.4,33.6 402.5,29.1 406.6,25.3 C410.8,21.5 416.6,19.7 424.2,19.7 C431.4,19.7 437.2,21.1 441.7,23.9 C446.2,26.7 448.8,31.6 449.5,38.5 L434.5,38.5 C434.3,36.6 433.7,35.1 432.9,34 C431.2,32 428.4,31 424.5,31 C421.2,31 418.9,31.5 417.5,32.5 C416.1,33.5 415.4,34.7 415.4,36 C415.4,37.7 416.1,38.9 417.6,39.7 C419.1,40.5 424.3,41.9 433.3,43.8 C439.3,45.2 443.8,47.3 446.7,50.1 C449.6,52.9 451.1,56.5 451.1,60.8 C451.1,66.4 449,71 444.7,74.5 C440.5,78.1 433.9,79.8 425.1,79.8 C416.1,79.8 409.4,77.9 405.1,74.2 C400.8,70.4 398.6,65.7 398.6,59.8 L413.8,59.8 L413.8,59.9 Z"></path>
                <path d="M456.2,32.4 L456.2,21.9 L464.2,21.9 L464.2,6 L479,6 L479,21.8 L488.3,21.8 L488.3,32.3 L479,32.3 L479,62.2 C479,64.5 479.3,66 479.9,66.5 C480.5,67.1 482.3,67.4 485.4,67.4 C485.9,67.4 486.3,67.4 486.8,67.4 C487.3,67.4 487.8,67.4 488.3,67.3 L488.3,78.4 L481.2,78.7 C474.1,78.9 469.3,77.7 466.7,75.1 C465,73.4 464.2,70.8 464.2,67.3 L464.2,32.4 L456.2,32.4 Z"></path>
            </g>
            <g transform="translate(0.000000, 423.000000)" id="Shape">
                <path d="M10.7,13.1 C11.4,13 11.8,12.7 12,12.3 C12.1,12 12.2,11.7 12.2,11.2 C12.2,10.2 11.9,9.5 11.2,9.1 C10.5,8.7 9.5,8.4 8.2,8.4 C6.7,8.4 5.6,8.8 5,9.6 C4.6,10 4.4,10.7 4.3,11.6 L1.6,11.6 C1.7,9.5 2.3,8.1 3.7,7.3 C5,6.5 6.5,6.1 8.3,6.1 C10.3,6.1 12,6.5 13.2,7.2 C14.4,8 15.1,9.1 15.1,10.7 L15.1,20.4 C15.1,20.7 15.2,20.9 15.3,21.1 C15.4,21.3 15.7,21.4 16.1,21.4 C16.2,21.4 16.4,21.4 16.5,21.4 C16.6,21.4 16.8,21.4 17,21.3 L17,23.4 C16.6,23.5 16.2,23.6 16,23.6 C15.8,23.6 15.4,23.6 15,23.6 C14,23.6 13.3,23.3 12.8,22.6 C12.6,22.2 12.4,21.7 12.3,21.1 C11.7,21.9 10.9,22.5 9.8,23.1 C8.7,23.7 7.5,23.9 6.2,23.9 C4.6,23.9 3.3,23.4 2.3,22.5 C1.3,21.6 0.8,20.4 0.8,19 C0.8,17.4 1.3,16.2 2.3,15.4 C3.3,14.5 4.6,14 6.2,13.8 L10.7,13.1 Z M4.7,20.8 C5.3,21.3 6,21.5 6.9,21.5 C7.9,21.5 8.9,21.3 9.9,20.8 C11.5,20 12.3,18.8 12.3,17.1 L12.3,14.8 C11.9,15 11.5,15.2 10.9,15.4 C10.3,15.5 9.8,15.7 9.3,15.7 L7.6,15.9 C6.6,16 5.8,16.2 5.2,16.5 C4.3,17 3.9,17.8 3.9,18.8 C3.7,19.6 4,20.3 4.7,20.8 Z"></path>
                <path d="M59.2,6.5 L59.2,17.6 C59.2,18.5 59.3,19.2 59.6,19.7 C60.1,20.7 61,21.2 62.4,21.2 C64.4,21.2 65.7,20.3 66.4,18.6 C66.8,17.7 67,16.4 67,14.7 L67,6.5 L69.9,6.5 L69.9,23.3 L67.2,23.3 L67.2,20.8 C66.8,21.4 66.4,22 65.8,22.4 C64.7,23.3 63.4,23.7 61.9,23.7 C59.5,23.7 57.9,22.9 57,21.3 C56.5,20.4 56.3,19.3 56.3,17.9 L56.3,6.5 L59.2,6.5 Z"></path>
                <path d="M111.7,1.8 L114.6,1.8 L114.6,6.5 L117.3,6.5 L117.3,8.8 L114.6,8.8 L114.6,19.7 C114.6,20.3 114.8,20.7 115.2,20.9 C115.4,21 115.8,21.1 116.3,21.1 C116.4,21.1 116.6,21.1 116.7,21.1 C116.9,21.1 117,21.1 117.3,21 L117.3,23.2 C117,23.3 116.6,23.4 116.3,23.4 C115.9,23.4 115.6,23.5 115.1,23.5 C113.8,23.5 112.8,23.2 112.4,22.5 C111.9,21.8 111.7,21 111.7,19.9 L111.7,8.8 L109.4,8.8 L109.4,6.5 L111.7,6.5 L111.7,1.8 Z"></path>
                <path d="M169.2,8.2 C170.7,9.6 171.5,11.8 171.5,14.6 C171.5,17.3 170.8,19.5 169.5,21.3 C168.2,23.1 166.1,23.9 163.3,23.9 C161,23.9 159.1,23.1 157.7,21.6 C156.3,20 155.6,17.9 155.6,15.3 C155.6,12.5 156.3,10.2 157.8,8.6 C159.3,6.9 161.2,6.1 163.7,6.1 C165.8,6 167.6,6.8 169.2,8.2 Z M167.4,19.3 C168.1,17.9 168.5,16.3 168.5,14.6 C168.5,13 168.2,11.8 167.7,10.8 C166.9,9.3 165.5,8.5 163.5,8.5 C161.8,8.5 160.5,9.2 159.7,10.5 C158.9,11.8 158.5,13.4 158.5,15.3 C158.5,17.1 158.9,18.6 159.7,19.8 C160.5,21 161.8,21.6 163.5,21.6 C165.4,21.5 166.7,20.8 167.4,19.3 Z"></path>
                <path d="M211.5,6.5 L214.4,6.5 L214.4,8.9 C215.1,8.1 215.7,7.5 216.3,7.1 C217.3,6.5 218.3,6.1 219.5,6.1 C220.9,6.1 222,6.4 222.8,7.1 C223.3,7.5 223.7,8 224.1,8.8 C224.7,7.9 225.5,7.2 226.4,6.8 C227.3,6.4 228.2,6.1 229.3,6.1 C231.6,6.1 233.2,6.9 234,8.5 C234.4,9.4 234.7,10.6 234.7,12 L234.7,23.2 L231.7,23.2 L231.7,11.5 C231.7,10.4 231.4,9.6 230.8,9.2 C230.2,8.8 229.5,8.6 228.7,8.6 C227.6,8.6 226.6,9 225.8,9.7 C225,10.4 224.6,11.7 224.6,13.4 L224.6,23.2 L221.7,23.2 L221.7,12.3 C221.7,11.2 221.6,10.3 221.3,9.8 C220.9,9 220,8.6 218.8,8.6 C217.7,8.6 216.7,9 215.8,9.8 C214.9,10.6 214.5,12.1 214.5,14.3 L214.5,23.2 L211.6,23.2 L211.6,6.5 L211.5,6.5 Z"></path>
                <path d="M284.6,13.1 C285.3,13 285.7,12.7 285.9,12.3 C286,12 286.1,11.7 286.1,11.2 C286.1,10.2 285.7,9.5 285.1,9.1 C284.4,8.7 283.4,8.4 282.1,8.4 C280.6,8.4 279.5,8.8 278.9,9.6 C278.5,10 278.3,10.7 278.2,11.6 L275.5,11.6 C275.6,9.5 276.2,8.1 277.6,7.3 C278.9,6.5 280.4,6.1 282.2,6.1 C284.2,6.1 285.9,6.5 287.1,7.2 C288.3,8 289,9.1 289,10.7 L289,20.4 C289,20.7 289.1,20.9 289.2,21.1 C289.3,21.3 289.6,21.4 290,21.4 C290.1,21.4 290.3,21.4 290.4,21.4 C290.6,21.4 290.7,21.4 290.9,21.3 L290.9,23.4 C290.5,23.5 290.1,23.6 289.9,23.6 C289.7,23.6 289.3,23.6 288.9,23.6 C287.9,23.6 287.2,23.3 286.7,22.6 C286.5,22.2 286.3,21.7 286.2,21.1 C285.6,21.9 284.8,22.5 283.7,23.1 C282.6,23.7 281.4,23.9 280.1,23.9 C278.5,23.9 277.2,23.4 276.2,22.5 C275.2,21.6 274.7,20.4 274.7,19 C274.7,17.4 275.2,16.2 276.2,15.4 C277.2,14.5 278.5,14 280.1,13.8 L284.6,13.1 Z M278.5,20.8 C279.1,21.3 279.8,21.5 280.7,21.5 C281.7,21.5 282.7,21.3 283.7,20.8 C285.3,20 286.1,18.8 286.1,17.1 L286.1,14.8 C285.7,15 285.3,15.2 284.7,15.4 C284.1,15.5 283.6,15.7 283.1,15.7 L281.4,15.9 C280.4,16 279.6,16.2 279,16.5 C278.1,17 277.7,17.8 277.7,18.8 C277.6,19.6 277.9,20.3 278.5,20.8 Z"></path>
                <path d="M330.7,1.8 L333.6,1.8 L333.6,6.5 L336.3,6.5 L336.3,8.8 L333.6,8.8 L333.6,19.7 C333.6,20.3 333.8,20.7 334.2,20.9 C334.4,21 334.8,21.1 335.3,21.1 C335.4,21.1 335.6,21.1 335.7,21.1 C335.9,21.1 336,21.1 336.3,21 L336.3,23.2 C336,23.3 335.6,23.4 335.3,23.4 C334.9,23.4 334.6,23.5 334.1,23.5 C332.8,23.5 331.8,23.2 331.4,22.5 C330.9,21.8 330.7,21 330.7,19.9 L330.7,8.8 L328.4,8.8 L328.4,6.5 L330.7,6.5 L330.7,1.8 Z"></path>
                <path d="M375.8,0.3 L378.7,0.3 L378.7,3.5 L375.8,3.5 L375.8,0.3 Z M375.8,6.6 L378.7,6.6 L378.7,23.3 L375.8,23.3 L375.8,6.6 Z"></path>
                <path d="M432,8.2 C433.5,9.6 434.3,11.8 434.3,14.6 C434.3,17.3 433.6,19.5 432.3,21.3 C431,23.1 428.9,23.9 426.1,23.9 C423.8,23.9 421.9,23.1 420.5,21.6 C419.1,20 418.4,17.9 418.4,15.3 C418.4,12.5 419.1,10.2 420.6,8.6 C422.1,6.9 424,6.1 426.5,6.1 C428.6,6 430.5,6.8 432,8.2 Z M430.2,19.3 C430.9,17.9 431.3,16.3 431.3,14.6 C431.3,13 431,11.8 430.5,10.8 C429.7,9.3 428.3,8.5 426.3,8.5 C424.6,8.5 423.3,9.2 422.5,10.5 C421.7,11.8 421.3,13.4 421.3,15.3 C421.3,17.1 421.7,18.6 422.5,19.8 C423.3,21 424.6,21.6 426.3,21.6 C428.2,21.5 429.5,20.8 430.2,19.3 Z"></path>
                <path d="M474.3,6.5 L477,6.5 L477,8.9 C477.8,7.9 478.7,7.2 479.6,6.8 C480.5,6.4 481.5,6.2 482.6,6.2 C485,6.2 486.7,7 487.5,8.7 C488,9.6 488.2,10.9 488.2,12.6 L488.2,23.4 L485.3,23.4 L485.3,12.8 C485.3,11.8 485.1,11 484.8,10.3 C484.3,9.3 483.4,8.7 482,8.7 C481.3,8.7 480.8,8.8 480.3,8.9 C479.5,9.1 478.8,9.6 478.2,10.3 C477.7,10.9 477.4,11.4 477.3,12 C477.2,12.6 477.1,13.4 477.1,14.5 L477.1,23.3 L474.2,23.3 L474.2,6.5 L474.3,6.5 Z"></path>
            </g>
        </g>
    </g>
</svg>