<?xml version="1.0" encoding="UTF-8"?>
<svg width="115px" height="300px" viewBox="0 0 115 300" version="1.1" xmlns="http://www.w3.org/2000/svg" xmlns:xlink="http://www.w3.org/1999/xlink">
    <!-- Generator: Sketch 53.1 (72631) - https://sketchapp.com -->
    <title>icon</title>
    <desc>Created with Sketch.</desc>
    <g id="Page-1" stroke="none" stroke-width="1" fill="none" fill-rule="evenodd">
        <g id="icon" fill="#000000" fill-rule="nonzero">
            <path d="M57.5,0.2 C65.8,35.7 101.5,179.1 112.3,220.1 C119.4,247.2 110.6,274.5 90.2,288.6 C69.4,302.9 45,302.7 24.2,288 C4.2,273.9 -4.3,247.1 2.7,220.3 C12.2,184.4 47.9,41 57.5,0.2 Z M39.8,193.9 C39.8,223.2 39.8,252.4 39.8,281.7 C39.8,287 39.8,293.2 47.3,293.2 C54.8,293.3 54.9,287.6 54.9,282.1 C54.9,268.1 54.6,254.3 54.7,240.3 C54.7,237.5 54.1,233 57.1,232.5 C59,232.2 62,235.3 64,237.4 C71.8,245.5 79.4,253.9 87.1,262.1 C91.1,266.4 96.3,271.7 101.8,266.4 C107.4,261 101.5,255.9 97.8,251.8 C84.9,237.5 71.9,223.3 58.7,209.3 C54.5,204.8 51.4,200.1 55.1,196.6 C58.5,193.3 63,198.4 65.9,200.9 C73.2,207.2 79.9,214.2 87,220.6 C90.9,224.1 94.9,231 100.8,224.2 C106.2,218 101,213.3 96.6,209.1 C83.9,196.9 71.2,184.7 58.5,172.6 C54.3,168.6 51.3,164.5 54.7,161 C57.8,157.7 62.5,162.3 65.1,164.6 C70.8,169.7 75.9,175.4 81.5,180.6 C85.1,184 89.4,188.1 94.2,182.8 C98.8,177.8 96.4,173.7 91.7,169.4 C80.2,158.8 69.4,147.6 58.2,136.6 C54.7,133.2 52.7,128.7 56,125.2 C59.2,121.8 61.4,127.1 63.8,128.7 C68.2,131.6 73.1,134.3 77.2,129.5 C81.3,124.7 77.9,120.3 73.9,116.7 C67.7,111.1 61.6,105.5 55.5,99.9 C52.3,97 49.4,93.2 44.4,95.3 C39,97.6 39.5,102.6 39.5,107.3 C39.8,136 39.8,165 39.8,193.9 Z" id="Shape"></path>
        </g>
    </g>
</svg>