<?xml version="1.0" encoding="UTF-8"?>
<svg width="695px" height="998px" viewBox="0 0 695 998" version="1.1" xmlns="http://www.w3.org/2000/svg" xmlns:xlink="http://www.w3.org/1999/xlink">
    <!-- Generator: Sketch 51.2 (57519) - http://www.bohemiancoding.com/sketch -->
    <title>generic-electric_meter</title>
    <desc>Created with Sketch.</desc>
    <defs></defs>
    <g id="Page-1" stroke="none" stroke-width="1" fill="none" fill-rule="evenodd">
        <g id="generic-electric_meter" transform="translate(5.000000, 5.000000)">
            <g id="Meter">
                <g id="Group">
                    <g>
                        <path d="M0,809.336787 L112.622112,809.336787 L112.622112,744.924008 L570.859795,744.924008 L570.859795,809.336787 L684.087508,809.336787 L684.087508,45.3124676 C684.087508,20.4596539 663.940322,0.3124676 639.087508,0.3124676 L45,0.3124676 C20.1471863,0.3124676 0,20.4596539 0,45.3124676 L0,809.336787 Z" id="Shape" stroke="#000000" stroke-width="10"></path>
                        <text id="1234567" fill="#000000" font-family="DS-Digital-BoldItalic, DS-Digital" font-size="72" font-style="italic" font-weight="bold">
                            <tspan x="209" y="217">123456</tspan>
                        </text>
                        <text id="200" fill="#000000" font-family="DS-Digital-BoldItalic, DS-Digital" font-size="36" font-style="italic" font-weight="bold">
                            <tspan x="142.009091" y="169">200</tspan>
                        </text>
                        <path d="M105.976866,67.035992 L578.111177,67.035992 C594.679719,67.035992 608.111177,80.4674495 608.111177,97.035992 L608.111178,552.974312 C608.111178,569.542854 594.679721,582.974312 578.111178,582.974312 C578.111178,582.974312 506.398382,582.974337 362.972789,582.974388 C346.404196,582.974387 332.972699,569.542888 332.9727,552.974296 C332.9727,552.381452 332.990273,551.788739 333.025396,551.196936 C337.682262,472.731722 327.930294,416.846632 303.769491,383.541666 C276.582138,346.064688 223.445439,326.558802 144.359395,325.02401 C143.712706,325.011419 143.06591,325.005144 142.419098,325.005144 L109.65547,325.005144 C91.055291,325.005144 75.9768663,309.926719 75.9768663,291.32654 L75.9768663,97.035992 C75.9768663,80.4674495 89.4083238,67.035992 105.976866,67.035992 Z" id="Shape" stroke="#000000" stroke-width="7"></path>
                        <path d="M152.249361,106.367613 C172.249361,106.367613 298.00772,106.367613 529.524439,106.367613 C559.524439,106.367613 559.524439,106.367613 559.524439,136.367613 L559.524439,252.203094 C559.524439,282.203094 559.382996,282.203094 542.814453,282.203094 L138.570313,282.203094 C122.001771,282.203094 122.249361,281.724792 122.249361,265.15625 L122.249361,136.367613 C122.249152,106.367613 122.249152,106.367613 152.249361,106.367613 Z" id="Shape" stroke="#000000" stroke-width="4"></path>
                        <path d="M180.08998,585.287936 C122.589895,585.287936 75.9768663,538.674907 75.9768663,481.174822 C75.9768663,423.674737 122.589895,377.061709 180.08998,377.061709 C237.590065,377.061709 284.203094,423.674737 284.203094,481.174822 C284.203094,538.674907 237.590065,585.287936 180.08998,585.287936 Z M180.08998,532.074567 C208.201133,532.074567 230.989725,509.285975 230.989725,481.174822 C230.989725,453.06367 208.201133,430.275078 180.08998,430.275078 C151.978827,430.275078 129.190236,453.06367 129.190236,481.174822 C129.190236,509.285975 151.978827,532.074567 180.08998,532.074567 Z" id="Shape" stroke="#000000" stroke-width="7"></path>
                        <path d="M0,830.335542 L0,962.793556 C150.67118,978.034551 264.176866,986.232066 340.465605,987.388315 C416.684325,988.543501 530.950434,980.36875 683.183666,962.855913 L683.183666,830.335542 L569.926663,830.335542 L569.926663,876.743601 L111.442705,876.743601 L111.442705,830.335542 L0,830.335542 Z" id="Shape" stroke="#000000" stroke-width="10"></path>
                    </g>
                </g>
            </g>
            <g id="Layer_1" transform="translate(432.000000, 377.000000)" fill="#000000" fill-rule="nonzero">
                <rect id="Rectangle-path" opacity="0" x="0.395254409" y="0.0662747398" width="174.175443" height="169.035398"></rect>
                <polygon id="Shape" points="81.1589052 0.0662747398 123.319376 0.0662747398 97.1008331 50.3165858 136.099268 50.3165858 49.0115467 169.229536 83.7939346 80.4923451 49.0115467 80.4923451"></polygon>
            </g>
            <g id="Layer_1" transform="translate(334.000000, 377.000000)" fill="#000000" fill-rule="nonzero">
                <rect id="Rectangle-path" opacity="0" x="0.395254409" y="0.0662747398" width="174.175443" height="169.035398"></rect>
                <polygon id="Shape" points="81.1589052 0.0662747398 123.319376 0.0662747398 97.1008331 50.3165858 136.099268 50.3165858 49.0115467 169.229536 83.7939346 80.4923451 49.0115467 80.4923451"></polygon>
            </g>
        </g>
    </g>
</svg>
